<?xml version="1.0" encoding="iso-8859-1"?>
<!-- Generator: Adobe Illustrator 19.0.0, SVG Export Plug-In . SVG Version: 6.00 Build 0)  -->
<svg version="1.1" id="Layer_1" xmlns="http://www.w3.org/2000/svg" xmlns:xlink="http://www.w3.org/1999/xlink" x="0px" y="0px"
	 viewBox="0 0 473.931 473.931" style="enable-background:new 0 0 473.931 473.931;" xml:space="preserve">
<circle style="fill:#4ABC96;" cx="236.966" cy="236.966" r="236.966"/>
<g>
	<path style="fill:#37919B;" d="M127.946,300.684v24.681c0,1.946,2.148,3.514,4.288,3.514H279.94c2.844,0,4.64-1.572,4.64-3.514
		v-24.681H127.946z"/>
	<path style="fill:#37919B;" d="M272.946,176.409h-1.441H141.319h-1.441c-6.593,0-11.932,5.347-11.932,11.936v93.447
		c0,6.589,5.343,11.932,11.932,11.932h2.099h128.877h2.092c6.593,0,11.932-5.347,11.932-11.932v-93.447
		C284.883,181.756,279.539,176.409,272.946,176.409z"/>
</g>
<path style="fill:#2C8484;" d="M285.377,279.828l-145.498-0.004c-6.593,0-11.932,1.156-11.932,2.574v24.703l143.56-0.505
	l13.164-0.722L285.377,279.828z"/>
<path style="fill:#308A8E;" d="M91.232,272.872l38.866,9.089l12.123-19.072c0,0,12.651-13.018,6.241-26.922
	c-6.425-13.908-20.333-14.439-20.333-14.439l-35.472,24.789L91.232,272.872z"/>
<polygon style="fill:#30898E;" points="285.369,279.824 285.369,262.889 142.221,262.889 130.094,281.96 "/>
<path style="fill:#37919B;" d="M130.445,262.365c0-12.239-10.058-22.166-22.466-22.166c-12.4,0-22.458,9.923-22.458,22.166
	c0,9.538,6.103,17.642,14.653,20.782v54.667c0,8.359,30.271,8.359,30.271,0V263.97c0-0.183-0.052-0.363-0.052-0.546
	C130.408,263.076,130.445,262.72,130.445,262.365z"/>
<path style="fill:#308A8E;" d="M321.919,272.872l-38.866,9.089l-12.123-19.072c0,0-12.658-13.018-6.241-26.922
	c6.425-13.908,20.325-14.439,20.325-14.439l35.479,24.789L321.919,272.872z"/>
<path style="fill:#37919B;" d="M282.705,262.365c0-12.239,10.058-22.166,22.458-22.166c12.408,0,22.466,9.923,22.466,22.166
	c0,9.538-6.103,17.642-14.66,20.782v54.667c0,8.359-30.263,8.359-30.263,0V263.97c0-0.183,0.052-0.363,0.052-0.546
	C282.739,263.076,282.705,262.72,282.705,262.365z"/>
<g>
	<path style="fill:#6A7872;" d="M394.576,338.281l-31.573-16.913c-0.43-0.554-1.104-0.891-1.819-0.898
		c-0.688-0.015-1.388,0.307-1.826,0.864l-33.193,17.111c-0.561,0.703-0.681,1.665-0.299,2.47c0.393,0.819,1.212,1.325,2.107,1.325
		h64.935c0.007,0,0.022,0,0.022,0c1.295,0,2.331-1.036,2.331-2.327C395.257,339.277,394.991,338.693,394.576,338.281z"/>
	<path style="fill:#6A7872;" d="M361.596,333.844c-2.361,0-4.277-1.92-4.277-4.284V143.081c0.03-0.561,1.587-22.02-11.947-36.68
		c-8.655-9.377-21.728-14.129-38.866-14.129c-2.361,0-4.277-1.916-4.277-4.281c0-2.369,1.916-4.281,4.277-4.281
		c19.659,0,34.873,5.702,45.215,16.954c16.063,17.474,14.222,41.747,14.14,42.776l0.015,186.119
		C365.877,331.924,363.961,333.844,361.596,333.844z"/>
	<path style="fill:#6A7872;" d="M361.596,258.9c-4.093,0-7.416,3.319-7.416,7.416v59.408c0.067,0.98,14.96,1.156,14.814-0.621
		l0.022-58.787C369.012,262.215,365.701,258.9,361.596,258.9z"/>
</g>
<circle style="fill:#9DC3C5;" cx="361.491" cy="332.306" r="4.011"/>
<circle style="fill:#8FB5B6;" cx="361.491" cy="332.306" r="2.642"/>
<g>
	<circle style="opacity:0.5;fill:#AED1D5;enable-background:new    ;" cx="274.159" cy="118.479" r="9.897"/>
	<path style="fill:#AED1D5;" d="M300.164,139.654l6.204-51.251c0.086-0.703-0.161-1.411-0.666-1.916
		c-0.483-0.498-1.212-0.76-1.908-0.677l-52.463,5.923c-0.891,0.101-1.65,0.715-1.946,1.557c-0.292,0.857-0.075,1.792,0.576,2.425
		l46.226,45.586c0.007,0.007,0.015,0.015,0.015,0.015c0.92,0.909,2.391,0.894,3.296-0.022
		C299.936,140.836,300.175,140.237,300.164,139.654z"/>
	<circle style="fill:#AED1D5;" cx="304.916" cy="88.175" r="7.484"/>
</g>
<g>
</g>
<g>
</g>
<g>
</g>
<g>
</g>
<g>
</g>
<g>
</g>
<g>
</g>
<g>
</g>
<g>
</g>
<g>
</g>
<g>
</g>
<g>
</g>
<g>
</g>
<g>
</g>
<g>
</g>
</svg>
