<?xml version="1.0" encoding="UTF-8" standalone="no"?>
<!-- Created with Inkscape (http://www.inkscape.org/) -->

<svg
   xmlns:dc="http://purl.org/dc/elements/1.1/"
   xmlns:cc="http://creativecommons.org/ns#"
   xmlns:rdf="http://www.w3.org/1999/02/22-rdf-syntax-ns#"
   xmlns:svg="http://www.w3.org/2000/svg"
   xmlns="http://www.w3.org/2000/svg"
   xmlns:sodipodi="http://sodipodi.sourceforge.net/DTD/sodipodi-0.dtd"
   xmlns:inkscape="http://www.inkscape.org/namespaces/inkscape"
   id="svg3249"
   version="1.1"
   inkscape:version="0.48.1 "
   width="401.25"
   height="622.5"
   xml:space="preserve"
   sodipodi:docname="elevator.pdf"><metadata
     id="metadata3255"><rdf:RDF><cc:Work
         rdf:about=""><dc:format>image/svg+xml</dc:format><dc:type
           rdf:resource="http://purl.org/dc/dcmitype/StillImage" /><dc:title></dc:title></cc:Work></rdf:RDF></metadata><defs
     id="defs3253" /><sodipodi:namedview
     pagecolor="#ffffff"
     bordercolor="#666666"
     borderopacity="1"
     objecttolerance="10"
     gridtolerance="10"
     guidetolerance="10"
     inkscape:pageopacity="0"
     inkscape:pageshadow="2"
     inkscape:window-width="640"
     inkscape:window-height="480"
     id="namedview3251"
     showgrid="false"
     inkscape:zoom="0.46746988"
     inkscape:cx="200.625"
     inkscape:cy="311.25"
     inkscape:window-x="490"
     inkscape:window-y="132"
     inkscape:window-maximized="0"
     inkscape:current-layer="g3257" /><g
     id="g3257"
     inkscape:groupmode="layer"
     inkscape:label="elevator"
     transform="matrix(1.25,0,0,-1.25,0,622.5)"><g
       id="g3259"
       transform="scale(0.24,0.24)"><path
         d="m 48.25,173.25 0,908 c -0.2109,90.63 69.457,165.88 165,166 l 911,0 c 92.42,-0.12 165.13,-74.33 165,-166 l 0,-909 c 0.33,-96.207 -73.62,-164.10547 -164,-164 l -912,0 0,0 c -90.332,-0.12109 -165.4023,71.957 -165,165"
         style="fill:#000000;fill-opacity:1;fill-rule:nonzero;stroke:none"
         id="path3261" /><path
         d="m 219.25,180.25 899,0 0,893 -899,0 0,-893 z"
         style="fill:#ffffff;fill-opacity:1;fill-rule:nonzero;stroke:none"
         id="path3263" /><path
         d="m 893.25,1950.25 c -1.02,118.7 170.86,120.04 172,0 l -3,-361 93,114 c 63.5,69.67 175.74,-27.99 106,-107 l -224,-267 c -35.17,-35.5 -81.207,-35.29 -116,0 l -224,268 c -68.863,79.05 44.418,177.75 107,107 l 92,-115 -3,361"
         style="fill:#000000;fill-opacity:1;fill-rule:nonzero;stroke:none"
         id="path3265" /><path
         d="m 269.25,1391.25 c -0.98,-118.53 170.895,-119.87 172,0 l -3,361 93,-113 c 63.543,-70.5 175.781,27.16 107,106 l -225,267 c -35.125,35.67 -81.168,35.45 -116,0 l -224,-268 c -68.82422,-78.89 44.457,-177.58 107,-106 l 92,114 -3,-361"
         style="fill:#000000;fill-opacity:1;fill-rule:nonzero;stroke:none"
         id="path3267" /><path
         d="m 1075.25,562.25 c -0.02,-18.5 -14.57,-31.086 -31,-31 0,0 -200.5,-0.086 -201,0 -15.559,-0.086 -30.363,12.719 -30,31 l 0,218 c -0.363,25.305 19.738,42.457 42,42 -0.508,0.457 178,0 178,0 23.78,0.457 41.98,-18.605 42,-42 l 0,-218"
         style="fill:#000000;fill-opacity:1;fill-rule:nonzero;stroke:none"
         id="path3269" /><path
         d="m 1026.25,539.25 -77,0 0,-296 c 0.238,-52.211 76.79,-52.211 77,0 l 0,296"
         style="fill:#000000;fill-opacity:1;fill-rule:nonzero;stroke:none"
         id="path3271" /><path
         d="m 938.25,539.25 -77,0 0,-296 c 0.055,-51.816 76.602,-51.816 77,0 l 0,296"
         style="fill:#000000;fill-opacity:1;fill-rule:nonzero;stroke:none"
         id="path3273" /><path
         d="m 945.25,840.25 c 31.27,0.215 57,25.938 57,58 0,31.395 -25.73,57.121 -57,57 -32.187,0.121 -57.91,-25.605 -58,-57 0.09,-32.062 25.813,-57.785 58,-58"
         style="fill:#000000;fill-opacity:1;fill-rule:nonzero;stroke:none"
         id="path3275" /><path
         d="m 800.25,562.25 c -0.023,-18.5 -14.574,-31.086 -31,-31 0,0 -200.5,-0.086 -201,0 -15.559,-0.086 -30.363,12.719 -30,31 l 0,218 c -0.363,25.305 19.738,42.457 42,42 -0.508,0.457 178,0 178,0 23.781,0.457 41.977,-18.605 42,-42 l 0,-218"
         style="fill:#000000;fill-opacity:1;fill-rule:nonzero;stroke:none"
         id="path3277" /><path
         d="m 751.25,539.25 -77,0 0,-296 c 0.238,-52.211 76.793,-52.211 77,0 l 0,296"
         style="fill:#000000;fill-opacity:1;fill-rule:nonzero;stroke:none"
         id="path3279" /><path
         d="m 663.25,539.25 -77,0 0,-296 c 0.055,-51.816 76.602,-51.816 77,0 l 0,296"
         style="fill:#000000;fill-opacity:1;fill-rule:nonzero;stroke:none"
         id="path3281" /><path
         d="m 670.25,840.25 c 31.27,0.215 56.996,25.938 57,58 -0.004,31.395 -25.73,57.121 -57,57 -32.187,0.121 -57.91,-25.605 -58,-57 0.09,-32.062 25.813,-57.785 58,-58"
         style="fill:#000000;fill-opacity:1;fill-rule:nonzero;stroke:none"
         id="path3283" /><path
         d="m 525.25,562.25 c -0.023,-18.5 -14.574,-31.086 -31,-31 0,0 -200.5,-0.086 -201,0 -15.559,-0.086 -30.363,12.719 -30,31 l 0,218 c -0.363,25.305 19.738,42.457 42,42 -0.508,0.457 178,0 178,0 23.781,0.457 41.977,-18.605 42,-42 l 0,-218"
         style="fill:#000000;fill-opacity:1;fill-rule:nonzero;stroke:none"
         id="path3285" /><path
         d="m 476.25,539.25 -77,0 0,-296 c 0.238,-52.211 76.793,-52.211 77,0 l 0,296"
         style="fill:#000000;fill-opacity:1;fill-rule:nonzero;stroke:none"
         id="path3287" /><path
         d="m 388.25,539.25 -77,0 0,-296 c 0.055,-51.816 76.602,-51.816 77,0 l 0,296"
         style="fill:#000000;fill-opacity:1;fill-rule:nonzero;stroke:none"
         id="path3289" /><path
         d="m 395.25,840.25 c 31.27,0.215 56.996,25.938 57,58 -0.004,31.395 -25.73,57.121 -57,57 -32.187,0.121 -57.91,-25.605 -58,-57 0.09,-32.062 25.813,-57.785 58,-58"
         style="fill:#000000;fill-opacity:1;fill-rule:nonzero;stroke:none"
         id="path3291" /></g></g></svg>